<svg width="200" height="200" viewBox="0 0 292 292" fill="none" xmlns="http://www.w3.org/2000/svg">
<path fill-rule="evenodd" clip-rule="evenodd" d="M132.88 106.681V263.881L2.04492 211.417V54.2168L132.88 106.681Z" fill="#DFBB9A" stroke="#263238" stroke-width="3.5" stroke-linecap="round" stroke-linejoin="round"/>
<path fill-rule="evenodd" clip-rule="evenodd" d="M164.872 251.118L133.045 263.881V106.681L263.88 54.2168V171.988C252.961 163.84 239.416 159.017 224.745 159.017C188.57 159.017 159.245 188.342 159.245 224.517C159.245 233.988 161.255 242.99 164.872 251.118Z" fill="#DFBB9A" stroke="#263238" stroke-width="3.5" stroke-linecap="round" stroke-linejoin="round"/>
<path fill-rule="evenodd" clip-rule="evenodd" d="M132.959 1.81689L264.045 54.2169L132.959 106.617L2.04492 54.2169L132.959 1.81689Z" fill="#DFBB9A" stroke="#263238" stroke-width="3.5" stroke-linecap="round" stroke-linejoin="round"/>
<path fill-rule="evenodd" clip-rule="evenodd" d="M198.502 80.4314L264.081 54.2169L132.995 1.81689L67.5449 28.0141L198.502 80.4314Z" fill="#DFBB9A" stroke="#263238" stroke-width="3.5" stroke-linecap="round" stroke-linejoin="round"/>
<circle cx="224.744" cy="224.517" r="65.5" fill="#A6CE39" stroke="#263238" stroke-width="3.5" stroke-linecap="round" stroke-linejoin="round"/>
<path d="M198.545 221.982L218.098 241.716L253.522 206.177" stroke="#263238" stroke-width="3.5" stroke-linecap="round" stroke-linejoin="round"/>
</svg>
