<svg width="200" height="200" viewBox="0 0 308 275" fill="none" xmlns="http://www.w3.org/2000/svg">
<path fill-rule="evenodd" clip-rule="evenodd" d="M248.966 15.4065C247.988 9.64505 251.724 4.17143 257.352 2.92816L257.885 2.82412C263.819 1.81657 269.448 5.81515 270.457 11.7579L300.553 189.028C301.532 194.79 297.795 200.263 292.168 201.506L291.635 201.61C285.7 202.618 280.072 198.619 279.063 192.677L248.966 15.4065Z" fill="#EE1D23" fill-opacity="0.89" stroke="#263238" stroke-width="3.5" stroke-linecap="round" stroke-linejoin="round"/>
<path fill-rule="evenodd" clip-rule="evenodd" d="M149.848 82.7406C149.848 82.7406 214.75 71.7216 248.073 10.1496L279.977 198.062C227.696 151.637 163.399 162.553 163.399 162.553L149.848 82.7406Z" fill="white" stroke="#263238" stroke-width="3.5" stroke-linecap="round" stroke-linejoin="round"/>
<path fill-rule="evenodd" clip-rule="evenodd" d="M42.273 100.253C41.5155 95.7913 44.5072 91.5621 48.9777 90.8031L140.277 75.3023C144.738 74.545 148.967 77.5456 149.725 82.0099L163.401 162.559C164.158 167.021 161.167 171.25 156.696 172.009L65.3966 187.51C60.9362 188.267 56.7066 185.267 55.9486 180.802L42.273 100.253Z" fill="#EE1D23" fill-opacity="0.89" stroke="#263238" stroke-width="3.5" stroke-linecap="round" stroke-linejoin="round"/>
<path fill-rule="evenodd" clip-rule="evenodd" d="M49.2113 173.676L35.7798 175.956C28.3618 177.215 21.3283 172.229 20.067 164.8L13.6836 127.202C12.4237 119.781 17.4309 112.742 24.8339 111.485L38.2654 109.204" fill="white"/>
<path d="M49.2113 173.676L35.7798 175.956C28.3618 177.215 21.3283 172.229 20.067 164.8L13.6836 127.202C12.4237 119.781 17.4309 112.742 24.8339 111.485L38.2654 109.204" stroke="#263238" stroke-width="3.5" stroke-linecap="round" stroke-linejoin="round"/>
<path fill-rule="evenodd" clip-rule="evenodd" d="M67.8389 112.474L129.624 101.985L67.8389 112.474Z" fill="#E1F2FA"/>
<path d="M67.8389 112.474L129.624 101.985" stroke="#263238" stroke-width="3.5" stroke-linecap="round" stroke-linejoin="round"/>
<path fill-rule="evenodd" clip-rule="evenodd" d="M105.673 180.672L73.4375 186.145L85.2959 255.991C86.305 261.934 91.9257 265.918 97.8539 264.912L125.868 260.155C131.048 259.276 135.766 251.095 129.292 245.755C129.292 245.755 114.621 233.375 113.801 228.544C112.439 220.523 105.673 180.672 105.673 180.672Z" fill="#EE1D23" fill-opacity="0.89" stroke="#263238" stroke-width="3.5" stroke-linecap="round" stroke-linejoin="round"/>
</svg>
