<svg width="36" height="36" viewBox="0 0 36 36" fill="none" xmlns="http://www.w3.org/2000/svg">
<path d="M27.2 6.3999C26 6.3999 25.1 7.2999 25.1 8.4999C25.1 9.6999 26 10.5999 27.2 10.5999C28.4 10.5999 29.3 9.6999 29.3 8.4999C29.3 7.2999 28.4 6.3999 27.2 6.3999Z" fill="url(#paint0_linear)"/>
<path d="M18 9C13.2 9 9.2 12.9 9.2 17.8C9.2 22.6 13.1 26.6 18 26.6C22.8 26.6 26.8 22.7 26.8 17.8C26.7 13 22.8 9 18 9ZM18 23.4C14.9 23.4 12.4 20.9 12.4 17.8C12.4 14.7 14.9 12.2 18 12.2C21.1 12.2 23.6 14.7 23.6 17.8C23.6 20.9 21.1 23.4 18 23.4Z" fill="url(#paint1_linear)"/>
<path d="M24.9 35.6H10.7C4.8 35.6 0 30.8 0 24.9V10.7C0 4.8 4.8 0 10.7 0H24.9C30.8 0 35.6 4.8 35.6 10.7V24.9C35.6 30.8 30.8 35.6 24.9 35.6ZM10.7 3.4C6.6 3.4 3.4 6.7 3.4 10.7V24.9C3.4 29 6.7 32.2 10.7 32.2H24.9C29 32.2 32.2 28.9 32.2 24.9V10.7C32.2 6.6 28.9 3.4 24.9 3.4H10.7Z" fill="url(#paint2_linear)"/>
<defs>
<linearGradient id="paint0_linear" x1="10.9243" y1="-7.1717" x2="43.2342" y2="23.7543" gradientUnits="userSpaceOnUse">
<stop offset="0.0011048" stop-color="#FBE18A"/>
<stop offset="0.2094" stop-color="#FCBB45"/>
<stop offset="0.3765" stop-color="#F75274"/>
<stop offset="0.5238" stop-color="#D53692"/>
<stop offset="0.7394" stop-color="#8F39CE"/>
<stop offset="1" stop-color="#5B4FE9"/>
</linearGradient>
<linearGradient id="paint1_linear" x1="1.8075" y1="2.3532" x2="34.1174" y2="33.2792" gradientUnits="userSpaceOnUse">
<stop offset="0.0011048" stop-color="#FBE18A"/>
<stop offset="0.2094" stop-color="#FCBB45"/>
<stop offset="0.3765" stop-color="#F75274"/>
<stop offset="0.5238" stop-color="#D53692"/>
<stop offset="0.7394" stop-color="#8F39CE"/>
<stop offset="1" stop-color="#5B4FE9"/>
</linearGradient>
<linearGradient id="paint2_linear" x1="1.7375" y1="2.4263" x2="34.0472" y2="33.3521" gradientUnits="userSpaceOnUse">
<stop offset="0.0011048" stop-color="#FBE18A"/>
<stop offset="0.2094" stop-color="#FCBB45"/>
<stop offset="0.3765" stop-color="#F75274"/>
<stop offset="0.5238" stop-color="#D53692"/>
<stop offset="0.7394" stop-color="#8F39CE"/>
<stop offset="1" stop-color="#5B4FE9"/>
</linearGradient>
</defs>
</svg>
