<svg width="36" height="36" viewBox="0 0 36 36" fill="none" xmlns="http://www.w3.org/2000/svg">
<g clip-path="url(#clip0)">
<path d="M0 35.6L2.6 26.1C1.2 23.5 0.4 20.6 0.4 17.6C0.3 7.9 8.2 0 17.9 0C27.6 0 35.5 7.9 35.5 17.6C35.5 27.3 27.6 35.2 17.9 35.2C15 35.2 12.1 34.5 9.5 33.1L0 35.6ZM10.1 29.5L10.7 29.9C12.9 31.2 15.4 31.9 18 31.9C25.9 31.9 32.3 25.5 32.3 17.6C32.3 9.7 25.9 3.3 18 3.3C10.1 3.3 3.7 9.7 3.7 17.6C3.7 20.2 4.4 22.8 5.8 25L6.2 25.6L4.8 30.9L10.1 29.5Z" fill="#00D95F"/>
<path fill-rule="evenodd" clip-rule="evenodd" d="M24.5 20C23.8 19.6 22.8 19.1 22 19.4C21.3 19.7 20.9 20.7 20.5 21.2C20.3 21.5 20 21.5 19.7 21.4C17.2 20.4 15.4 18.8 14 16.5C13.8 16.1 13.8 15.9 14.1 15.5C14.5 15 15 14.5 15.1 13.8C15.2 13.2 14.9 12.4 14.6 11.8C14.3 11.1 13.9 10 13.1 9.6C12.4 9.2 11.5 9.4 10.9 9.9C9.9 10.8 9.3 12.1 9.4 13.4C9.4 13.8 9.5 14.2 9.5 14.5C9.7 15.4 10.1 16.2 10.6 17C10.9 17.6 11.3 18.2 11.7 18.7C13 20.5 14.6 22 16.5 23.2C17.4 23.8 18.5 24.3 19.5 24.6C20.7 25 21.7 25.4 23 25.2C24.3 24.9 25.7 24.1 26.2 22.8C26.4 22.4 26.4 22 26.3 21.6C26.3 20.9 25.2 20.4 24.5 20Z" fill="#00D95F"/>
</g>
<defs>
<clipPath id="clip0">
<rect width="35.5" height="35.6" fill="white"/>
</clipPath>
</defs>
</svg>
