<?xml version="1.0" encoding="utf-8"?>
<!-- Generator: Adobe Illustrator 25.0.0, SVG Export Plug-In . SVG Version: 6.00 Build 0)  -->
<svg version="1.1" id="Layer_1" xmlns="http://www.w3.org/2000/svg" xmlns:xlink="http://www.w3.org/1999/xlink" x="0px" y="0px"
	 viewBox="0 0 927.5 867.1" style="enable-background:new 0 0 927.5 867.1;" xml:space="preserve">
<style type="text/css">
	.st0{fill:#231F20;}
	.st1{fill:#6C6D70;}
	.st2{fill:#A5CD39;}
	.st3{fill:#ED1D23;}
</style>
<path class="st0" d="M65.5,847.8c-8-94.6-16.2-189.3-24.1-283.9c-9-108.5-17.9-217-26.8-325.5c-3.7-45-7.3-90-11.4-135
	C1.9,87.9,8.7,80.8,23.7,79.6c116-9.3,232-18.7,348.1-28.2c122.4-10,244.7-20.3,367.1-30.4c34.1-2.8,68.1-5.5,102.2-8
	c5.8-0.4,13.3-3,15.1,6.6c-0.9,2.8-2.1,5.4-4.3,7.5c-30.3,28.8-56,61.9-86.6,90.4c-6.6,6.1-13.7,10.7-22.6,12.3
	c-36.7,5.6-73.8,6.5-110.7,9.8c-50.7,4.7-101.5,8.8-152.2,12.7c-62.3,4.8-124.6,10.3-186.9,15.3c-46.7,3.7-93.4,7.7-140.2,11.1
	c-17.5,1.3-21.6,6.5-20.4,22.9c7.6,99.3,16.2,198.4,24.3,297.6c5.9,72.7,11.9,145.3,18,218c0.5,5.8,0.4,11.6-0.3,17.3
	c-1.4,10.2-7,18.5-13.9,25.4c-26.2,26-50.9,53.4-76.3,80.1C79.4,845,74.9,852.9,65.5,847.8z"/>
<path class="st1" d="M65.2,844.5c9.4-10.1,11.5-12.5,18.1-18.9c30.8-29.8,62.7-58.8,90.5-88.5c18.4,0.3,29.9,1.4,48.5-0.2
	c77.8-6.9,155.8-12.9,233.7-19.3c63.5-5.2,126.9-10.9,190.4-15.3c42.7-3,85.4-7.3,128.1-10.6c15.4-1.2,18.9-5.9,17.6-21.5
	c-7.4-88.9-15-177.7-22.2-266.6c-6.9-84.8-13.7-169.6-21-254.4c-0.9-10-0.4-10.8-2.5-20.4c20.4-23.3,37.9-43.3,55.4-64.4
	c14.9-18,31.9-36.8,51.2-50.6c5.4,4.8,4.7,11.9,5.2,18.2c9.6,120.9,19.2,241.8,28.9,362.7c6.7,83.4,13.8,166.9,20.8,250.3
	c3.3,40.3,6.3,80.6,10.3,120.8c1.6,16.2-6,22-20.5,23.2c-51.2,4.3-102.4,8.8-153.5,13.1c-97.2,8.1-194.5,16.2-291.7,24.2
	c-56.4,4.7-112.8,9.4-169.2,13.8c-65.1,5.2-130.1,10.3-195.2,15C77.8,855.8,65.4,859.1,65.2,844.5z"/>
<path class="st2" d="M234.6,398.3c1.3-128.7,137.1-209.1,248.7-147.6c10.5,5.8,10.8,9.4,4.4,18.9c-57.5,85.4-114.6,171-171.4,256.8
	c-7,10.5-11.9,10.7-21,2.8C256.1,495.5,234,448.8,234.6,398.3z"/>
<path class="st3" d="M576.4,624.4c-63.8,0-119.6-53.8-117.9-116.8c1.9-69.3,52.1-117.3,118.1-118.2c64.1-0.9,117.7,53.3,117.7,116.8
	C694.3,571.2,641.2,624.4,576.4,624.4z"/>
</svg>
