<svg width="1401" height="385" viewBox="0 0 1401 385" fill="none" xmlns="http://www.w3.org/2000/svg">
<path d="M1360.7 139.5C1346.9 107.5 1309.4 100.7 1283.1 113.2C1255.7 126.3 1248.5 157.9 1257.1 183.6C1264.2 204.8 1283.7 217 1309.5 217.1C1314.2 217.3 1319.7 216.7 1325 215.4C1362.8 206.8 1372.9 167.7 1360.7 139.5ZM1336.3 203C1322.2 217.5 1298.1 218 1283.7 203.8C1272.5 192.7 1267.9 179 1268.5 164.9C1268.4 150.8 1270.8 138.8 1277.9 128.1C1292.8 105.5 1322.4 104.9 1339.3 126.1C1355.9 146.9 1352.5 186.5 1336.3 203Z" fill="#231F20"/>
<path d="M699.1 215.1C684.8 215.1 670.4 215.2 656.1 215C654.5 215 651.4 216.5 651.4 213.3C651.4 210.7 654.4 211.7 656.2 211.2C656.5 211.1 656.9 211.2 657.2 211.2C666.9 210.3 668.4 208.6 668.4 198.7C668.4 175.3 668.4 151.8 668.4 128.5C668.4 126.5 668.4 124.5 668.2 122.5C667.5 115.7 665.2 113.3 658.5 112.6C657.3 112.5 656.2 112.4 655 112.3C653.8 112.1 652.1 112.3 652.4 110.2C652.7 108.4 654.2 109.1 655.2 109.1C666.2 109.1 677.3 109.1 688.3 109.1C703.8 109.1 719.4 109.2 734.8 109C738.1 109 739.5 109.8 740 113C740.8 118.1 742 123.2 742.9 128.2C743.1 129.4 743.7 131 741.9 131.6C740.1 132.2 739.8 130.5 739.2 129.4C737.3 126.3 735.6 122.9 733.7 119.9C731.2 114.7 727.4 112.2 721.5 112.4C711.7 112.7 701.8 112.4 691.9 112.6C684.6 112.7 683.2 113.6 682.8 120.9C682.2 132.3 682.5 143.7 682.4 155.1C682.4 156.7 683 157.6 684.7 157.6C693 157.6 701.4 158.1 709.6 155.9C716 154.2 717.3 148.7 718.2 143.1C718.4 141.9 717.7 140 719.8 140.1C722.3 140.1 721.4 142.2 721.4 143.5C721.5 154.9 721.5 166.3 721.4 177.7C721.4 179 722.3 181.1 719.8 181.1C717.7 181.1 718.5 179.2 718.2 178C715.5 164.9 713.8 163.5 700.2 161.8C695.4 161.2 690.6 161.6 685.8 161.3C683 161.1 682.5 162.5 682.5 164.9C682.6 177.1 682.4 189.3 682.6 201.6C682.7 209.5 684.3 211.6 691.1 211.8C704.1 212.2 717.1 211.9 730.1 211.9C734.7 211.9 737.8 209.4 740.2 205.7C743 201.4 745.2 196.6 747.4 192C748 190.8 748.2 189.2 750 189.7C752.1 190.2 751.6 191.9 751.3 193.3C750.1 199.5 748.6 205.7 747.7 211.9C747.3 215 746 215.5 743.2 215.4C728.5 215 713.8 215.1 699.1 215.1Z" fill="#231F20"/>
<path d="M892.3 129.4C891.2 128 892 126.9 892.4 125.6C894 120.9 895.5 116.1 897.2 111.5C898 109.4 897.9 106.2 899.9 105.4C901.7 104.6 903.3 107.4 905.1 108.3C906.1 108.8 907.3 109 908.4 109C932.1 109 955.8 108.8 979.5 108.8C983.8 108.8 987.3 107.7 990.5 104.2C993.4 113.4 994.5 122.3 996.2 131.2C992.3 128.8 990.3 125 987.9 121.4C984.2 116.1 979.4 112.9 973 112.6C967.2 112.4 961.4 112.4 955.5 112.4C952.4 112.4 950.5 113.8 950.5 117.2C950.5 123 950.1 128.9 950.1 134.7C950 154.3 950.1 173.9 950.1 193.5C950.1 194.8 950.1 196.2 950.1 197.5C950.6 207.7 952.7 209.7 962.9 211C965.2 211.3 969.7 210.1 969.5 213C969.3 216.5 965 214.5 962.6 214.6C948.6 214.8 934.5 214.7 920.6 214.7C919.3 214.7 917.2 215.7 916.9 213.5C916.5 210.7 919 211.6 920.4 211.4C935.1 209.5 935.9 208.6 936 193.6C936 168.8 936 144 936 119.3C936 113.1 935.4 112.4 929.1 112.3C926.8 112.3 924.4 112.4 922.1 112.3C911.1 111.5 902.6 115.4 896.8 125.1C895.9 127.1 894.7 129 892.3 129.4Z" fill="#231F20"/>
<path d="M1217 187.7C1214.9 196.4 1212.8 204.9 1210.7 213.6C1210.3 215.4 1208.7 215 1207.4 215C1177.3 215 1147.3 215 1117.3 215C1116.1 215 1114.4 215.6 1114.3 213.4C1114.2 211.1 1116 211.3 1117.4 211.2C1120.1 211 1122.7 211.1 1125.4 210.8C1130.9 210.1 1133 208 1133.4 202.4C1133.8 197.8 1134 193 1134.1 188.4C1134.2 168.4 1134.1 148.6 1134.1 128.6C1134.1 126.8 1134.1 124.9 1134 123.1C1133.5 113.4 1133.2 113.1 1123.7 112.5C1122.9 112.4 1122 112.4 1121.2 112.3C1119.8 112.2 1119 111.6 1119.1 110.2C1119.2 108.9 1120.3 108.8 1121.3 108.8C1122 108.8 1122.6 108.8 1123.3 108.8C1136 108.8 1148.7 108.8 1161.4 108.9C1162.8 108.9 1165.2 107.8 1165.4 110.3C1165.6 112.9 1163.2 112.2 1161.7 112.4C1148.2 113.6 1148.2 113.6 1148.2 127.5C1148.2 152.1 1148.2 176.7 1148.4 201.3C1148.5 210.5 1148.8 210.7 1157.9 210.8C1168.4 211 1179 210.8 1189.5 211C1193.9 211.1 1197.1 209.4 1199.8 206C1205 199.7 1210.4 193.6 1215.7 187.4C1216.1 187.5 1216.5 187.6 1217 187.7Z" fill="#231F20"/>
<path d="M846.6 108.6C847.4 116.9 848 123.1 848.6 129.4C848.7 130.4 848.7 131.4 847.4 131.7C845.9 132 845.4 131 844.9 129.9C843.3 125.7 841.2 121.7 838.1 118.3C831.4 111.1 820.4 108.7 811.4 112.8C804.7 115.7 801.2 121.2 800.6 128.4C800.1 135.3 802.6 140.7 808.5 144.5C816.4 149.6 825.5 152 834 155.9C836.8 157.2 839.7 158.5 842.5 160C854.3 166.7 859.5 177.3 857.4 190.1C855.1 203.6 845.8 213.5 833.1 216.2C822.2 218.5 811.9 216.5 801.8 212.6C798.7 211.4 795.7 210.1 792.4 212.6C790.4 214.1 789.6 212.7 789.6 210.5C789.6 203.3 789.5 196.1 789.4 188.9C789.4 188 789.1 186.8 790.4 186.4C791.9 186 792.4 187.2 792.9 188.2C796.1 194.2 799.7 200.1 804.7 204.8C813.3 212.9 823.4 215.5 834.7 212.2C842.4 209.9 846.5 204.2 847.4 196.5C848.4 188 847.5 180 839.3 174.9C831.5 170.1 822.5 168 814.3 163.7C810.8 161.8 807.2 160 803.8 158C793.6 151.9 789.9 142.6 791.7 131.1C793.6 119.1 801.1 111.9 812.6 108.8C820.9 106.6 829.1 107.2 837.1 110.7C840.2 112 843.2 114.3 846.6 108.6Z" fill="#231F20"/>
<path d="M446.9 195.9C439.2 207.4 428.1 213.5 414.9 215.9C381.7 221.7 360 196.9 356.4 169.7C352.8 142.9 368.5 120.4 385.3 112.3C397.3 106.5 409.7 106.4 422.3 109.2C424.6 109.7 426.9 110.2 429 111.1C433.5 112.9 437.7 113.3 441.5 108C443.2 116.2 443.3 123.6 443.8 131C443.8 131.6 443.8 132.4 443 132.6C441.8 132.9 441.2 131.9 440.7 131.1C438.1 127.4 435.1 124 431.8 120.9C413.5 103.6 387.1 107.7 376.3 130.5C367 150.3 367.7 170.6 378.9 189.6C391.5 210.9 420.2 215.1 439.9 199.5C441.8 198 443.8 196.4 445.7 194.9C446.4 195 446.8 195.3 446.9 195.9Z" fill="#231F20"/>
<path d="M529.4 217.4C526.8 215.3 526.8 212.8 526.1 210.6C517.2 182.9 508.4 155.1 499.4 127.4C497.1 120.3 495.2 113 485.9 112.1C484.8 112 484.2 111 484.5 109.9C484.7 108.9 485.6 108.8 486.4 108.8C498.2 108.8 510.1 108.8 522 108.8C523.1 108.8 524 108.9 524 110.3C524 111.6 523.2 112 522.1 112.2C521.4 112.3 520.8 112.3 520.1 112.4C512.8 113.6 510.4 117 512.5 124.5C516.5 138.9 521 153.2 525.3 167.5C527.7 175.3 530.1 183.1 532.5 190.9C532.8 191.8 532.6 193.1 533.9 193.3C535.5 193.5 535.6 192.1 536 191C543.8 171.1 551.6 151.4 559.4 131.5C560.2 129.4 560.7 127.1 561.1 124.7C562.6 116 560.6 113.5 552.2 112C550.9 111.8 548.1 112.6 548.4 110C548.7 107.6 551.1 108.7 552.6 108.7C560.6 108.6 568.6 108.6 576.7 108.7C577.9 108.7 579.6 107.9 580 109.9C580.5 112.1 578.6 112 577.3 112.5C573.3 114 570.8 117 569 120.8C560.9 137 555.1 154.3 548 171C541.8 186.4 535.7 201.7 529.4 217.4Z" fill="#231F20"/>
<path d="M1048.9 159.8C1048.9 147.9 1049 136 1048.9 124.1C1048.8 114.2 1048.3 113.7 1038.7 112.7C1037.9 112.6 1037 112.7 1036.2 112.5C1034.9 112.2 1032.9 113.1 1032.9 110.6C1032.9 108.1 1034.8 108.8 1036.1 108.8C1040.9 108.7 1045.8 108.8 1050.6 108.8C1058.4 108.8 1066.3 108.8 1074.2 108.8C1075.6 108.8 1077.5 108.3 1077.4 110.7C1077.4 112.8 1075.6 112.3 1074.5 112.5C1060.5 114 1063 114.8 1062.9 125.9C1062.8 148.7 1062.9 171.5 1062.9 194.2C1062.9 196.2 1062.9 198.2 1063 200.2C1063.3 208.6 1065.1 210.3 1073.3 211.2C1075.5 211.5 1079.8 209.7 1079.5 213.6C1079.3 216.3 1075.3 214.8 1073.1 214.8C1060.4 215 1047.7 214.9 1035 214.8C1033.5 214.8 1030.9 216.2 1030.6 213.3C1030.4 210.5 1033.1 211.1 1034.7 211.1C1048.7 210.6 1048.2 207.6 1048.8 195.8C1049.5 183.9 1048.9 171.8 1048.9 159.8Z" fill="#231F20"/>
<path d="M446.9 195.9C446.5 195.5 446.2 195.2 445.8 194.8C446.6 193.9 447.2 193.1 447.9 192.1C448.5 192.5 448.8 193.2 448.8 193.9C448.2 194.8 448 195 446.9 195.9Z" fill="#231F20"/>
<path d="M448.8 193.9C448.1 193.5 447.9 192.9 447.9 192.1C448.5 191.3 449.1 190.1 449.9 191C451.1 192.3 449.7 193.1 448.8 193.9Z" fill="#231F20"/>
<path d="M398 243L398.8 254.8H398C396.9 251.3 395.4 248.7 393.5 247.2C391.5 245.6 389.2 244.9 386.5 244.9C384.2 244.9 382.1 245.5 380.3 246.7C378.4 247.9 377 249.7 375.9 252.3C374.8 254.9 374.3 258 374.3 261.8C374.3 264.9 374.8 267.7 375.8 270C376.8 272.3 378.3 274.1 380.3 275.3C382.3 276.5 384.6 277.1 387.2 277.1C389.4 277.1 391.4 276.6 393.1 275.7C394.8 274.7 396.7 272.8 398.8 270L399.6 270.5C397.9 273.6 395.8 275.8 393.5 277.3C391.2 278.7 388.4 279.5 385.3 279.5C379.6 279.5 375.1 277.4 372 273.1C369.7 269.9 368.5 266.2 368.5 261.9C368.5 258.4 369.3 255.3 370.8 252.4C372.3 249.5 374.5 247.3 377.2 245.7C379.9 244.1 382.9 243.3 386.1 243.3C388.6 243.3 391.1 243.9 393.5 245.1C394.2 245.5 394.7 245.7 395 245.7C395.5 245.7 395.9 245.5 396.2 245.2C396.6 244.7 397 244.1 397.1 243.3H398V243Z" fill="#F48221"/>
<path d="M529.5 266.9H516.1L513.8 272.4C513.2 273.7 512.9 274.8 512.9 275.4C512.9 275.9 513.2 276.4 513.7 276.8C514.2 277.2 515.3 277.5 516.9 277.6V278.5H506V277.6C507.4 277.3 508.4 277 508.8 276.6C509.7 275.8 510.6 274.1 511.7 271.6L523.8 243H524.7L536.7 271.9C537.7 274.2 538.5 275.7 539.3 276.4C540.1 277.1 541.2 277.5 542.6 277.6V278.5H529V277.6C530.4 277.5 531.3 277.3 531.8 276.9C532.3 276.5 532.5 276 532.5 275.5C532.5 274.7 532.2 273.6 531.5 271.9L529.5 266.9ZM528.8 265L522.9 251L516.9 265H528.8Z" fill="#F48221"/>
<path d="M672 243.8L672.4 251.9H671.4C671.2 250.5 671 249.4 670.6 248.8C670.1 247.8 669.4 247.1 668.5 246.6C667.6 246.1 666.5 245.9 665 245.9H660.1V272.4C660.1 274.5 660.3 275.9 660.8 276.4C661.4 277.1 662.4 277.5 663.8 277.5H665V278.4H650.4V277.5H651.6C653.1 277.5 654.1 277.1 654.7 276.2C655.1 275.7 655.3 274.4 655.3 272.5V246H651.1C649.5 246 648.3 246.1 647.7 246.4C646.8 246.7 646.1 247.3 645.4 248.3C644.8 249.2 644.4 250.5 644.3 252H643.3L643.7 243.9H672V243.8Z" fill="#F48221"/>
<path d="M788.8 245.7V259.4H796.4C798.4 259.4 799.7 259.1 800.3 258.5C801.2 257.7 801.7 256.3 801.8 254.4H802.7V266.5H801.8C801.6 264.8 801.3 263.7 801.1 263.2C800.8 262.6 800.3 262.1 799.6 261.8C798.9 261.5 797.8 261.3 796.4 261.3H788.8V272.7C788.8 274.2 788.9 275.2 789 275.5C789.1 275.8 789.4 276.1 789.7 276.3C790 276.5 790.7 276.6 791.6 276.6H797.5C799.5 276.6 800.9 276.5 801.8 276.2C802.7 275.9 803.5 275.4 804.3 274.6C805.4 273.5 806.4 271.9 807.5 269.8H808.5L805.5 278.5H779V277.6H780.2C781 277.6 781.8 277.4 782.5 277C783 276.7 783.4 276.3 783.6 275.8C783.8 275.3 783.9 274.1 783.9 272.4V249.8C783.9 247.6 783.7 246.2 783.2 245.7C782.6 245 781.6 244.7 780.1 244.7H779V243.8H805.6L806 251.4H805C804.6 249.6 804.2 248.3 803.8 247.6C803.4 246.9 802.7 246.4 801.9 246C801.2 245.7 800 245.6 798.3 245.6H788.8V245.7Z" fill="#F48221"/>
<path d="M949.3 278.5H940.1L928.4 262.3C927.5 262.3 926.8 262.4 926.3 262.4C926.1 262.4 925.8 262.4 925.6 262.4C925.3 262.4 925.1 262.4 924.8 262.4V272.5C924.8 274.7 925 276 925.5 276.6C926.1 277.4 927.1 277.7 928.4 277.7H929.8V278.6H915V277.7H916.3C917.8 277.7 918.8 277.2 919.4 276.3C919.8 275.8 919.9 274.5 919.9 272.5V250.1C919.9 247.9 919.7 246.6 919.2 246C918.5 245.2 917.6 244.9 916.2 244.9H914.9V244H927.5C931.2 244 933.9 244.3 935.6 244.8C937.3 245.3 938.8 246.3 940 247.8C941.2 249.2 941.8 251 941.8 253C941.8 255.1 941.1 257 939.7 258.6C938.3 260.2 936.2 261.3 933.3 261.9L940.4 271.9C942 274.2 943.4 275.7 944.6 276.5C945.8 277.3 947.3 277.7 949.2 277.9V278.5H949.3ZM924.8 260.6C925.1 260.6 925.4 260.6 925.6 260.6C925.8 260.6 926 260.6 926.2 260.6C929.5 260.6 932 259.9 933.6 258.4C935.3 257 936.1 255.1 936.1 252.9C936.1 250.7 935.4 249 934.1 247.6C932.8 246.2 931 245.6 928.7 245.6C927.7 245.6 926.4 245.8 924.7 246.1V260.6H924.8Z" fill="#F48221"/>
<path d="M1069.2 277.5V278.4H1054.4V277.5H1055.6C1057 277.5 1058.1 277.1 1058.7 276.2C1059.1 275.7 1059.3 274.3 1059.3 272.3V249.9C1059.3 248.1 1059.2 247 1059 246.4C1058.8 246 1058.5 245.6 1058 245.3C1057.3 244.9 1056.5 244.7 1055.7 244.7H1054.5V243.8H1069.3V244.7H1068.1C1066.7 244.7 1065.7 245.1 1065 246C1064.6 246.5 1064.4 247.9 1064.4 249.9V272.3C1064.4 274.1 1064.5 275.2 1064.7 275.8C1064.9 276.2 1065.2 276.6 1065.8 276.9C1066.5 277.3 1067.3 277.5 1068.1 277.5H1069.2V277.5Z" fill="#F48221"/>
<path d="M1174.1 243.8H1183.5L1204.6 269.8V249.8C1204.6 247.7 1204.4 246.3 1203.9 245.8C1203.3 245.1 1202.3 244.7 1200.9 244.7H1199.7V243.8H1211.7V244.7H1210.5C1209 244.7 1208 245.1 1207.4 246C1207 246.5 1206.8 247.8 1206.8 249.7V279H1205.9L1183.1 251V272.4C1183.1 274.5 1183.3 275.9 1183.8 276.4C1184.4 277.1 1185.4 277.5 1186.8 277.5H1188V278.4H1176V277.5H1177.2C1178.7 277.5 1179.7 277.1 1180.3 276.2C1180.7 275.7 1180.9 274.4 1180.9 272.5V248.4C1179.9 247.2 1179.1 246.4 1178.6 246.1C1178.1 245.7 1177.3 245.4 1176.3 245.1C1175.8 244.9 1175.1 244.9 1174.1 244.9V243.8Z" fill="#F48221"/>
<path d="M1348.7 243L1349.6 254H1348.7C1347.8 251.3 1346.6 249.2 1345.2 247.8C1343.1 245.8 1340.5 244.8 1337.3 244.8C1332.9 244.8 1329.6 246.5 1327.3 250C1325.4 253 1324.4 256.5 1324.4 260.5C1324.4 263.8 1325 266.8 1326.3 269.6C1327.6 272.3 1329.2 274.3 1331.3 275.6C1333.4 276.9 1335.5 277.5 1337.7 277.5C1339 277.5 1340.2 277.3 1341.4 277C1342.6 276.7 1343.7 276.2 1344.8 275.6V265.6C1344.8 263.9 1344.7 262.7 1344.4 262.2C1344.1 261.7 1343.7 261.3 1343.2 261C1342.6 260.7 1341.7 260.6 1340.3 260.6V259.6H1353.7V260.6H1353.1C1351.8 260.6 1350.9 261 1350.4 261.9C1350.1 262.5 1349.9 263.8 1349.9 265.6V276.2C1347.9 277.3 1346 278 1344.1 278.5C1342.2 279 1340.1 279.2 1337.8 279.2C1331.1 279.2 1326.1 277 1322.6 272.7C1320 269.5 1318.7 265.8 1318.7 261.5C1318.7 258.4 1319.4 255.5 1320.9 252.7C1322.6 249.4 1325 246.8 1328 245C1330.5 243.5 1333.5 242.8 1337 242.8C1338.3 242.8 1339.4 242.9 1340.4 243.1C1341.4 243.3 1342.9 243.8 1344.8 244.5C1345.8 244.9 1346.4 245 1346.7 245C1347 245 1347.3 244.9 1347.5 244.6C1347.7 244.3 1347.9 243.7 1347.9 242.8H1348.7V243Z" fill="#F48221"/>
<path d="M40.1 324.4C37.8 296.9 35.4 269.4 33.1 241.9C30.5 210.4 27.9 178.8 25.4 147.3C24.3 134.2 23.3 121.1 22.1 108.1C21.7 103.6 23.7 101.5 28 101.1C61.6 98.4 95.1 95.7 128.7 92.9C164 90 199.4 87 234.8 84.1C244.6 83.3 254.5 82.5 264.4 81.8C266.1 81.7 268.2 80.9 268.8 83.7C268.5 84.5 268.2 85.3 267.6 85.9C258.9 94.3 251.4 103.9 242.5 112.2C240.6 114 238.5 115.3 236 115.7C225.4 117.3 214.6 117.6 204 118.5C189.4 119.9 174.6 121 160 122.2C142 123.6 124 125.2 106 126.6C92.5 127.7 79 128.8 65.5 129.8C60.5 130.2 59.3 131.7 59.6 136.5C61.8 165.3 64.3 194.1 66.6 223C68.3 244.2 70 265.2 71.8 286.4C71.9 288.1 71.9 289.7 71.7 291.4C71.3 294.3 69.7 296.7 67.7 298.8C60.1 306.4 53 314.3 45.6 322.1C44.1 323.6 42.8 325.9 40.1 324.4Z" fill="#231F20"/>
<path d="M40 323.5C42.7 320.6 43.3 319.9 45.2 318C54.1 309.3 63.4 300.9 71.4 292.3C76.7 292.4 80 292.7 85.4 292.2C107.9 290.2 130.4 288.5 153 286.6C171.4 285.1 189.7 283.5 208.1 282.2C220.4 281.3 232.8 280.1 245.2 279.1C249.6 278.8 250.7 277.4 250.3 272.9C248.2 247.1 246 221.2 243.9 195.4C241.9 170.7 239.9 146.1 237.8 121.4C237.5 118.5 237.7 118.3 237.1 115.5C243 108.7 248 102.9 253.1 96.8C257.4 91.6 262.3 86.1 267.9 82.1C269.5 83.5 269.3 85.5 269.4 87.4C272.2 122.6 274.9 157.7 277.7 192.8C279.6 217.1 281.7 241.3 283.7 265.6C284.7 277.3 285.5 289.1 286.7 300.7C287.2 305.4 285 307 280.8 307.5C266 308.7 251.2 310 236.4 311.3C208.3 313.6 180.1 316 152.1 318.4C135.8 319.8 119.5 321.1 103.2 322.4C84.3 323.9 65.6 325.4 46.7 326.7C43.6 326.7 40.1 327.8 40 323.5Z" fill="#6C6D70"/>
<path d="M89 193.7C89.4 156.3 128.6 132.9 160.9 150.9C163.9 152.6 164 153.6 162.2 156.4C145.6 181.2 129 206.1 112.7 231.1C110.7 234.1 109.3 234.2 106.6 231.9C95.2 222 88.8 208.4 89 193.7Z" fill="#A5CD39"/>
<path d="M187.9 259.5C169.4 259.5 153.3 243.9 153.8 225.5C154.3 205.3 168.8 191.4 188 191.1C206.6 190.8 222.1 206.6 222.1 225.1C222 244 206.6 259.5 187.9 259.5Z" fill="#ED1D23"/>
</svg>
